<?xml version="1.0" standalone="no"?>
<!DOCTYPE svg PUBLIC "-//W3C//DTD SVG 1.1//EN" "http://www.w3.org/Graphics/SVG/1.1/DTD/svg11.dtd">

<svg width="552.0" height="118.0" viewBox="0 0 552.0 118.0" version="1.1" xmlns="http://www.w3.org/2000/svg" xmlns:xlink="http://www.w3.org/1999/xlink">
<!-- automatically generated by aafigure --><line x1="150.0" y1="3.0" x2="150.0" y2="115.0" stroke="#000000" stroke-width="2.0" />
<line x1="346.0" y1="3.0" x2="346.0" y2="115.0" stroke="#000000" stroke-width="2.0" />
<line x1="66.0" y1="38.0" x2="80.0" y2="38.0" stroke="#000000" stroke-width="2.0" />
<line x1="220.0" y1="38.0" x2="234.0" y2="38.0" stroke="#000000" stroke-width="2.0" />
<line x1="402.0" y1="38.0" x2="416.0" y2="38.0" stroke="#000000" stroke-width="2.0" />
<line x1="66.0" y1="38.0" x2="66.0" y2="115.0" stroke="#000000" stroke-width="2.0" />
<line x1="80.0" y1="38.0" x2="80.0" y2="115.0" stroke="#000000" stroke-width="2.0" />
<line x1="220.0" y1="38.0" x2="220.0" y2="115.0" stroke="#000000" stroke-width="2.0" />
<line x1="234.0" y1="38.0" x2="234.0" y2="115.0" stroke="#000000" stroke-width="2.0" />
<line x1="402.0" y1="38.0" x2="402.0" y2="115.0" stroke="#000000" stroke-width="2.0" />
<line x1="416.0" y1="38.0" x2="416.0" y2="115.0" stroke="#000000" stroke-width="2.0" />
<g>
    <rect x="3.0" y="59.0" width="14.0" height="14.0" stroke="#000000" fill="#000000" stroke-width="2.0" style="" />    <line x1="3.0" y1="59.0" x2="3.0" y2="73.0" stroke="#000000" stroke-width="2.0" />
    <line x1="3.0" y1="59.0" x2="17.0" y2="59.0" stroke="#000000" stroke-width="2.0" />
    <rect x="3.0" y="73.0" width="14.0" height="14.0" stroke="#000000" fill="#000000" stroke-width="2.0" style="" />    <line x1="3.0" y1="73.0" x2="3.0" y2="87.0" stroke="#000000" stroke-width="2.0" />
    <line x1="3.0" y1="87.0" x2="17.0" y2="87.0" stroke="#000000" stroke-width="2.0" />
    <rect x="17.0" y="73.0" width="14.0" height="14.0" stroke="#000000" fill="#000000" stroke-width="2.0" style="" />    <line x1="31.0" y1="73.0" x2="31.0" y2="87.0" stroke="#000000" stroke-width="2.0" />
    <line x1="17.0" y1="87.0" x2="31.0" y2="87.0" stroke="#000000" stroke-width="2.0" />
    <rect x="17.0" y="59.0" width="14.0" height="14.0" stroke="#000000" fill="#000000" stroke-width="2.0" style="" />    <line x1="31.0" y1="59.0" x2="31.0" y2="73.0" stroke="#000000" stroke-width="2.0" />
    <line x1="17.0" y1="59.0" x2="31.0" y2="59.0" stroke="#000000" stroke-width="2.0" />
</g>
<g>
    <rect x="269.0" y="59.0" width="14.0" height="14.0" stroke="#000000" fill="#000000" stroke-width="2.0" style="" />    <line x1="269.0" y1="59.0" x2="269.0" y2="73.0" stroke="#000000" stroke-width="2.0" />
    <line x1="269.0" y1="59.0" x2="283.0" y2="59.0" stroke="#000000" stroke-width="2.0" />
    <rect x="269.0" y="73.0" width="14.0" height="14.0" stroke="#000000" fill="#000000" stroke-width="2.0" style="" />    <line x1="269.0" y1="73.0" x2="269.0" y2="87.0" stroke="#000000" stroke-width="2.0" />
    <line x1="269.0" y1="87.0" x2="283.0" y2="87.0" stroke="#000000" stroke-width="2.0" />
    <rect x="283.0" y="73.0" width="14.0" height="14.0" stroke="#000000" fill="#000000" stroke-width="2.0" style="" />    <line x1="297.0" y1="73.0" x2="297.0" y2="87.0" stroke="#000000" stroke-width="2.0" />
    <line x1="283.0" y1="87.0" x2="297.0" y2="87.0" stroke="#000000" stroke-width="2.0" />
    <rect x="283.0" y="59.0" width="14.0" height="14.0" stroke="#000000" fill="#000000" stroke-width="2.0" style="" />    <line x1="297.0" y1="59.0" x2="297.0" y2="73.0" stroke="#000000" stroke-width="2.0" />
    <line x1="283.0" y1="59.0" x2="297.0" y2="59.0" stroke="#000000" stroke-width="2.0" />
</g>
<g>
    <rect x="507.0" y="59.0" width="14.0" height="14.0" stroke="#000000" fill="#000000" stroke-width="2.0" style="" />    <line x1="507.0" y1="59.0" x2="507.0" y2="73.0" stroke="#000000" stroke-width="2.0" />
    <line x1="507.0" y1="59.0" x2="521.0" y2="59.0" stroke="#000000" stroke-width="2.0" />
    <rect x="507.0" y="73.0" width="14.0" height="14.0" stroke="#000000" fill="#000000" stroke-width="2.0" style="" />    <line x1="507.0" y1="73.0" x2="507.0" y2="87.0" stroke="#000000" stroke-width="2.0" />
    <line x1="507.0" y1="87.0" x2="521.0" y2="87.0" stroke="#000000" stroke-width="2.0" />
    <rect x="521.0" y="73.0" width="14.0" height="14.0" stroke="#000000" fill="#000000" stroke-width="2.0" style="" />    <line x1="535.0" y1="73.0" x2="535.0" y2="87.0" stroke="#000000" stroke-width="2.0" />
    <line x1="521.0" y1="87.0" x2="535.0" y2="87.0" stroke="#000000" stroke-width="2.0" />
    <rect x="521.0" y="59.0" width="14.0" height="14.0" stroke="#000000" fill="#000000" stroke-width="2.0" style="" />    <line x1="535.0" y1="59.0" x2="535.0" y2="73.0" stroke="#000000" stroke-width="2.0" />
    <line x1="521.0" y1="59.0" x2="535.0" y2="59.0" stroke="#000000" stroke-width="2.0" />
</g>
<g>
    <line x1="45.0" y1="94.0" x2="34.5" y2="97.5" stroke="#000000" stroke-width="2.0" />
    <line x1="45.0" y1="94.0" x2="34.5" y2="90.5" stroke="#000000" stroke-width="2.0" />
    <line x1="17.0" y1="94.0" x2="45.0" y2="94.0" stroke="#000000" stroke-width="2.0" />
</g>
<g>
    <line x1="311.0" y1="94.0" x2="300.5" y2="97.5" stroke="#000000" stroke-width="2.0" />
    <line x1="311.0" y1="94.0" x2="300.5" y2="90.5" stroke="#000000" stroke-width="2.0" />
    <line x1="283.0" y1="94.0" x2="311.0" y2="94.0" stroke="#000000" stroke-width="2.0" />
</g>
<g>
    <line x1="549.0" y1="94.0" x2="538.5" y2="97.5" stroke="#000000" stroke-width="2.0" />
    <line x1="549.0" y1="94.0" x2="538.5" y2="90.5" stroke="#000000" stroke-width="2.0" />
    <line x1="521.0" y1="94.0" x2="549.0" y2="94.0" stroke="#000000" stroke-width="2.0" />
</g>
<text x="3.0" y="14.9" font-family="monospace" font-size="14.0" fill="#000000" >
  step 1
</text>
<text x="185.0" y="14.9" font-family="monospace" font-size="14.0" fill="#000000" >
  step 2
</text>
<text x="381.0" y="14.9" font-family="monospace" font-size="14.0" fill="#000000" >
  step 3
</text>
<text x="3.0" y="98.89999999999999" font-family="monospace" font-size="14.0" fill="#000000" >
  v
</text>
<text x="269.0" y="98.89999999999999" font-family="monospace" font-size="14.0" fill="#000000" >
  v
</text>
<text x="507.0" y="98.89999999999999" font-family="monospace" font-size="14.0" fill="#000000" >
  v
</text>
</svg>
