<svg xmlns="http://www.w3.org/2000/svg" width="156.235" height="32.954" viewBox="0 0 156.235 32.954">
    <defs>
        <style>.a{fill:#fff;}</style>
    </defs>
    <path class="a" d="M13.066,5.173,0,0V4.091L7.892,7.213Z"/>
    <path class="a" d="M4.11,10.9l5.173,2.039,7.892-3.122,7.892,3.122L30.242,10.9,22.349,7.782,17.176,5.73,12,7.782Z"
          transform="translate(1.063 1.483)"/>
    <path class="a" d="M13.066,16.633,5.173,13.512,0,11.46v4.091l7.892,3.134Z" transform="translate(0 2.965)"/>
    <path class="a" d="M18.239,17.2l-5.173,2.039L0,24.413V28.5l18.239-7.213L36.466,28.5V24.413L23.413,19.239Z"
          transform="translate(0 4.45)"/>
    <path class="a" d="M23.761,7.213l7.892-3.122V0L18.6,5.173Z" transform="translate(4.813)"/>
    <path class="a" d="M18.6,16.633l5.161,2.052,7.892-3.134V11.46l-5.161,2.052Z" transform="translate(4.813 2.965)"/>
    <g transform="translate(43.313 6.634)">
        <path class="a"
              d="M43.045,5.27H34.41V24.944h4.129V17.82h4.846c4.129,0,6.571-2.5,6.571-6.218A6.251,6.251,0,0,0,48.193,7.12,6.915,6.915,0,0,0,43.045,5.27Zm-.39,9.3H38.526V8.744h4.179c1.976,0,3.134,1.045,3.134,2.9C45.852,13.414,44.744,14.572,42.655,14.572Z"
              transform="translate(-34.41 -5.27)"/>
        <path class="a"
              d="M59.788,14.609c0-3.3-1.712-5.2-5.941-5.2-4.129,0-5.966,2.178-6.08,4.645H51.09c.113-1.347.957-1.976,2.719-1.976,1.573,0,2.366.655,2.366,1.674,0,1.07-1.07,1.271-3.411,1.6C49.63,15.792,47.1,16.786,47.1,19.9c0,2.807,2.039,4.317,4.922,4.317,2.417,0,3.436-.831,4.154-1.9h.05a4.077,4.077,0,0,0,.441,1.573h3.6v-.138c-.327-.252-.491-.881-.491-1.951V14.609ZM56.276,18.9c0,1.372-1.183,2.694-3.323,2.694-1.322,0-2.2-.466-2.2-1.787s.957-1.762,2.92-2.2a10.161,10.161,0,0,0,2.618-.831V18.9Z"
              transform="translate(-31.127 -4.199)"/>
        <path class="a"
              d="M68.587,11.256h-.05a4.561,4.561,0,0,0-3.9-1.876c-3.575,0-6.1,2.694-6.1,6.911,0,4.267,3.084,6.747,6.218,6.747a4.584,4.584,0,0,0,3.688-1.649h.076v1.536c0,1.926-1.02,2.945-3.134,2.945-1.737,0-2.53-.692-2.832-1.573H58.832c.39,2.757,2.757,4.406,6.608,4.406a7.342,7.342,0,0,0,5.085-1.6A5.476,5.476,0,0,0,72.2,22.811V9.77H68.6v1.485Zm-3.222,8.773c-1.926,0-3.2-1.4-3.2-3.8,0-2.366,1.271-3.852,3.159-3.852,2.253,0,3.361,1.762,3.361,3.827C68.7,18.3,67.731,20.029,65.365,20.029Z"
              transform="translate(-28.169 -4.207)"/>
        <rect class="a" width="3.738" height="3.361" transform="translate(46.448)"/>
        <rect class="a" width="3.738" height="14.111" transform="translate(46.448 5.564)"/>
        <path class="a"
              d="M84.128,9.38A4.56,4.56,0,0,0,79.948,11.7h-.075V9.77H76.21V23.881h3.738V15.875a2.949,2.949,0,0,1,2.857-3.248,2.347,2.347,0,0,1,2.455,2.58v8.673H89V14.667C89,11.583,87.048,9.38,84.128,9.38Z"
              transform="translate(-23.594 -4.207)"/>
        <path class="a"
              d="M100.348,14.609c0-3.3-1.712-5.2-5.941-5.2-4.129,0-5.966,2.178-6.08,4.645H91.65c.113-1.347.969-1.976,2.719-1.976,1.573,0,2.366.655,2.366,1.674,0,1.07-1.07,1.271-3.411,1.6-3.134.441-5.664,1.435-5.664,4.544,0,2.807,2.039,4.317,4.922,4.317,2.417,0,3.436-.831,4.154-1.9h.05a3.678,3.678,0,0,0,.441,1.573h3.6v-.138c-.327-.252-.491-.881-.491-1.951V14.609ZM96.824,18.9c0,1.372-1.183,2.694-3.323,2.694-1.322,0-2.2-.466-2.2-1.787s.957-1.762,2.92-2.2a10.162,10.162,0,0,0,2.618-.831V18.9Z"
              transform="translate(-20.632 -4.199)"/>
        <path class="a"
              d="M120.623,11.924a5.3,5.3,0,0,0-4.431,1.951h-.05c0-3.336,1.322-5.387,4.078-5.387a2.54,2.54,0,0,1,2.757,2.014h3.6c-.466-2.807-2.719-4.871-6.5-4.871a6.677,6.677,0,0,0-5.425,2.178c-1.674,1.9-2.341,4.594-2.316,7.93.05,5.123,2.417,9.541,7.817,9.541,3.94,0,7.011-2.719,7.011-6.608A6.525,6.525,0,0,0,120.623,11.924Zm-.6,10.4a3.5,3.5,0,0,1-3.638-3.638,3.469,3.469,0,0,1,3.663-3.738,3.575,3.575,0,0,1,3.55,3.764A3.511,3.511,0,0,1,120.018,22.321Z"
              transform="translate(-14.246 -5.177)"/>
        <path class="a"
              d="M111.508,10.505l-3.663,4.708v2.5h-5.551v-.076L111.508,5.76h-3.688L99.26,16.673v4.053h8.585v4.091h3.663V20.726h2.971V17.718h-2.971Z"
              transform="translate(-17.63 -5.143)"/>
    </g>
</svg>