<?xml version="1.0" encoding="UTF-8" standalone="no"?>
<!DOCTYPE svg PUBLIC "-//W3C//DTD SVG 1.1//EN" "http://www.w3.org/Graphics/SVG/1.1/DTD/svg11.dtd">
<svg width="100%" height="100%" viewBox="0 0 210 210" version="1.1" xmlns="http://www.w3.org/2000/svg" xmlns:xlink="http://www.w3.org/1999/xlink" xml:space="preserve" style="fill-rule:evenodd;clip-rule:evenodd;stroke-linejoin:round;stroke-miterlimit:2;">
    <defs>
        <symbol id="duck" viewBox="0 0 210 210">
            <path d="M105.572,101.811C115.461,95.443 132.989,85.347 133.678,59.645C134.214,39.367 123.707,10.139 84.523,8.767C53.041,7.659 39.9,28.251 36.071,46.739L35.143,46.613C33.211,46.613 31.705,47.893 29.803,49.502C27.719,51.286 25.12,53.481 22.011,53.81C18.438,54.171 13.9,52.604 10.313,51.361C6.12,49.93 3.689,49.314 2.048,50.602C0.545,51.765 -0.13,53.864 0.02,56.828C0.351,63.154 4.991,75.745 16.036,82.606C23.706,87.371 32.284,88.088 36.717,88.088L36.723,88.088C39.093,88.088 41.668,87.849 44.111,87.362C46.852,91.58 49.339,94.838 50.148,97.114C52.202,102.965 22.3,122.201 22.3,152.124C22.3,182.04 44.313,200.599 79.027,200.599L134.031,200.599C164.624,200.599 204.845,170.691 209.322,108.119C180.781,132.191 167.028,98.15 105.572,101.811ZM18.941,77.945C8.775,71.617 4.992,58.922 5.294,55.525C6.191,55.765 7.488,56.214 8.522,56.567C12.627,57.982 17.938,59.795 22.59,59.274C27.389,58.775 30.843,55.837 33.368,53.7C33.975,53.191 34.761,52.524 35.24,52.209C36.11,52.524 36.202,52.902 36.416,55.349C36.612,57.609 36.889,60.719 38.778,64.355C40.215,67.116 42.359,70.06 44.424,72.897C46.125,75.233 48.702,78.768 48.959,79.301C48.514,80.485 44.052,82.583 36.73,82.583C30.177,82.591 23.69,80.904 18.941,77.945ZM56.86,49.368C56.86,44.43 60.861,40.425 65.791,40.425C70.732,40.425 74.733,44.43 74.733,49.368C74.733,54.299 70.732,58.31 65.791,58.31C60.854,58.311 56.86,54.299 56.86,49.368ZM149.159,155.398L128.529,166.567L141.937,175.86C141.937,175.86 92.083,191.673 69.739,168.975C58.733,157.815 56.679,140.442 73.863,130.135C91.047,119.823 158.472,134.078 158.472,134.078L134.295,147.8L149.159,155.398Z" style="fill-rule:nonzero;"/>
        </symbol>
    </defs>
    <use xlink:href="#duck" x="0"  y="0" style="opacity:1.0;translate(0,210) scale(1, -1)" />
</svg>
