<?xml version="1.0" encoding="UTF-8" standalone="no"?>
<!DOCTYPE svg PUBLIC "-//W3C//DTD SVG 1.1//EN"
 "http://www.w3.org/Graphics/SVG/1.1/DTD/svg11.dtd">
<!-- Generated by graphviz version 2.40.1 (20161225.0304)
 -->
<!-- Title: %3 Pages: 1 -->
<svg width="599pt" height="305pt"
 viewBox="0.00 0.00 599.06 305.00" xmlns="http://www.w3.org/2000/svg" xmlns:xlink="http://www.w3.org/1999/xlink">
<g id="graph0" class="graph" transform="scale(1 1) rotate(0) translate(4 301)">
<title>%3</title>
<polygon fill="#ffffff" stroke="transparent" points="-4,4 -4,-301 595.0622,-301 595.0622,4 -4,4"/>
<!-- (&#39;start&#39;,) -->
<g id="node1" class="node">
<title>(&#39;start&#39;,)</title>
<ellipse fill="none" stroke="#000000" cx="319.0622" cy="-279" rx="27" ry="18"/>
<text text-anchor="middle" x="319.0622" y="-275.3" font-family="Times,serif" font-size="14.00" fill="#000000">start</text>
</g>
<!-- (&#39;accept&#39;,) -->
<g id="node2" class="node">
<title>(&#39;accept&#39;,)</title>
<ellipse fill="none" stroke="#000000" cx="319.0622" cy="-192" rx="33.5952" ry="18"/>
<text text-anchor="middle" x="319.0622" y="-188.3" font-family="Times,serif" font-size="14.00" fill="#000000">accept</text>
</g>
<!-- (&#39;start&#39;,)&#45;&gt;(&#39;accept&#39;,) -->
<g id="edge1" class="edge">
<title>(&#39;start&#39;,)&#45;&gt;(&#39;accept&#39;,)</title>
<path fill="none" stroke="#000000" d="M319.0622,-260.9735C319.0622,-249.1918 319.0622,-233.5607 319.0622,-220.1581"/>
<polygon fill="#000000" stroke="#000000" points="322.5623,-220.0033 319.0622,-210.0034 315.5623,-220.0034 322.5623,-220.0033"/>
<text text-anchor="middle" x="338.5622" y="-231.8" font-family="Times,serif" font-size="14.00" fill="#000000">always</text>
</g>
<!-- (&#39;zero_or_more&#39;, &#39;after0&#39;) -->
<g id="node3" class="node">
<title>(&#39;zero_or_more&#39;, &#39;after0&#39;)</title>
<ellipse fill="none" stroke="#000000" cx="117.0622" cy="-105" rx="27" ry="18"/>
<text text-anchor="middle" x="117.0622" y="-101.3" font-family="Times,serif" font-size="14.00" fill="#000000">S2</text>
</g>
<!-- (&#39;accept&#39;,)&#45;&gt;(&#39;zero_or_more&#39;, &#39;after0&#39;) -->
<g id="edge2" class="edge">
<title>(&#39;accept&#39;,)&#45;&gt;(&#39;zero_or_more&#39;, &#39;after0&#39;)</title>
<path fill="none" stroke="#000000" d="M285.3248,-190.6094C208.2415,-187.0865 24.422,-176.5924 6.0622,-156 -18.0076,-129.0031 39.2573,-115.342 80.1694,-109.2298"/>
<polygon fill="#000000" stroke="#000000" points="80.7391,-112.6843 90.159,-107.835 79.771,-105.7516 80.7391,-112.6843"/>
<text text-anchor="middle" x="50.5622" y="-144.8" font-family="Times,serif" font-size="14.00" fill="#000000">in/next_episode</text>
</g>
<!-- (&#39;zero_or_more&#39;, &#39;1&#39;, &#39;either1&#39;, &#39;1&#39;, &#39;zero_or_more&#39;, &#39;after0&#39;) -->
<g id="node5" class="node">
<title>(&#39;zero_or_more&#39;, &#39;1&#39;, &#39;either1&#39;, &#39;1&#39;, &#39;zero_or_more&#39;, &#39;after0&#39;)</title>
<ellipse fill="none" stroke="#000000" cx="371.0622" cy="-105" rx="27" ry="18"/>
<text text-anchor="middle" x="371.0622" y="-101.3" font-family="Times,serif" font-size="14.00" fill="#000000">S4</text>
</g>
<!-- (&#39;accept&#39;,)&#45;&gt;(&#39;zero_or_more&#39;, &#39;1&#39;, &#39;either1&#39;, &#39;1&#39;, &#39;zero_or_more&#39;, &#39;after0&#39;) -->
<g id="edge3" class="edge">
<title>(&#39;accept&#39;,)&#45;&gt;(&#39;zero_or_more&#39;, &#39;1&#39;, &#39;either1&#39;, &#39;1&#39;, &#39;zero_or_more&#39;, &#39;after0&#39;)</title>
<path fill="none" stroke="#000000" d="M293.0445,-180.1009C275.5566,-170.3996 257.4805,-155.9079 268.0622,-141 276.1317,-129.6314 308.9738,-119.4345 335.4331,-112.8204"/>
<polygon fill="#000000" stroke="#000000" points="336.2956,-116.2129 345.1964,-110.466 334.6545,-109.4079 336.2956,-116.2129"/>
<text text-anchor="middle" x="308.5622" y="-144.8" font-family="Times,serif" font-size="14.00" fill="#000000">in/next_image</text>
</g>
<!-- (&#39;zero_or_more&#39;, &#39;after0&#39;)&#45;&gt;(&#39;accept&#39;,) -->
<g id="edge4" class="edge">
<title>(&#39;zero_or_more&#39;, &#39;after0&#39;)&#45;&gt;(&#39;accept&#39;,)</title>
<path fill="none" stroke="#000000" d="M118.5623,-123.0857C120.4477,-134.1612 124.665,-147.7477 134.0622,-156 154.6198,-174.053 227.263,-183.8821 275.1706,-188.5281"/>
<polygon fill="#000000" stroke="#000000" points="275.0054,-192.0277 285.2864,-189.4683 275.6533,-185.0578 275.0054,-192.0277"/>
<text text-anchor="middle" x="197.5622" y="-144.8" font-family="Times,serif" font-size="14.00" fill="#000000">out/no_more_episodes</text>
</g>
<!-- (&#39;zero_or_more&#39;, &#39;1&#39;, &#39;either1&#39;, &#39;after0&#39;) -->
<g id="node4" class="node">
<title>(&#39;zero_or_more&#39;, &#39;1&#39;, &#39;either1&#39;, &#39;after0&#39;)</title>
<ellipse fill="none" stroke="#000000" cx="350.0622" cy="-18" rx="27" ry="18"/>
<text text-anchor="middle" x="350.0622" y="-14.3" font-family="Times,serif" font-size="14.00" fill="#000000">S3</text>
</g>
<!-- (&#39;zero_or_more&#39;, &#39;after0&#39;)&#45;&gt;(&#39;zero_or_more&#39;, &#39;1&#39;, &#39;either1&#39;, &#39;after0&#39;) -->
<g id="edge5" class="edge">
<title>(&#39;zero_or_more&#39;, &#39;after0&#39;)&#45;&gt;(&#39;zero_or_more&#39;, &#39;1&#39;, &#39;either1&#39;, &#39;after0&#39;)</title>
<path fill="none" stroke="#000000" d="M140.6857,-96.1792C182.3781,-80.6117 269.1046,-48.2288 316.8172,-30.4134"/>
<polygon fill="#000000" stroke="#000000" points="318.2323,-33.6211 326.3762,-26.8441 315.7836,-27.0633 318.2323,-33.6211"/>
<text text-anchor="middle" x="296.0622" y="-57.8" font-family="Times,serif" font-size="14.00" fill="#000000">out/episode_start</text>
</g>
<!-- (&#39;zero_or_more&#39;, &#39;1&#39;, &#39;either1&#39;, &#39;after0&#39;)&#45;&gt;(&#39;accept&#39;,) -->
<g id="edge6" class="edge">
<title>(&#39;zero_or_more&#39;, &#39;1&#39;, &#39;either1&#39;, &#39;after0&#39;)&#45;&gt;(&#39;accept&#39;,)</title>
<path fill="none" stroke="#000000" d="M375.4479,-24.3683C439.1535,-41.492 596.886,-91.616 542.0622,-156 530.5858,-169.4776 424.3695,-181.8517 362.7606,-187.9745"/>
<polygon fill="#000000" stroke="#000000" points="362.155,-184.517 352.543,-188.9734 362.8362,-191.4838 362.155,-184.517"/>
<text text-anchor="middle" x="571.5622" y="-101.3" font-family="Times,serif" font-size="14.00" fill="#000000">always</text>
</g>
<!-- (&#39;zero_or_more&#39;, &#39;1&#39;, &#39;either1&#39;, &#39;1&#39;, &#39;zero_or_more&#39;, &#39;after0&#39;)&#45;&gt;(&#39;accept&#39;,) -->
<g id="edge7" class="edge">
<title>(&#39;zero_or_more&#39;, &#39;1&#39;, &#39;either1&#39;, &#39;1&#39;, &#39;zero_or_more&#39;, &#39;after0&#39;)&#45;&gt;(&#39;accept&#39;,)</title>
<path fill="none" stroke="#000000" d="M364.9087,-122.6129C361.0242,-132.7339 355.5242,-145.4839 349.0622,-156 346.649,-159.9272 343.8346,-163.8794 340.9147,-167.6531"/>
<polygon fill="#000000" stroke="#000000" points="338.0807,-165.5902 334.469,-175.5505 343.5037,-170.0164 338.0807,-165.5902"/>
<text text-anchor="middle" x="384.0622" y="-144.8" font-family="Times,serif" font-size="14.00" fill="#000000">out/image</text>
</g>
<!-- (&#39;zero_or_more&#39;, &#39;1&#39;, &#39;either1&#39;, &#39;1&#39;, &#39;zero_or_more&#39;, &#39;after0&#39;)&#45;&gt;(&#39;accept&#39;,) -->
<g id="edge8" class="edge">
<title>(&#39;zero_or_more&#39;, &#39;1&#39;, &#39;either1&#39;, &#39;1&#39;, &#39;zero_or_more&#39;, &#39;after0&#39;)&#45;&gt;(&#39;accept&#39;,)</title>
<path fill="none" stroke="#000000" d="M392.3824,-116.1167C408.5247,-126.0485 426.3105,-141.2652 416.0622,-156 409.2417,-165.8065 383.3266,-175.1403 359.9983,-181.8456"/>
<polygon fill="#000000" stroke="#000000" points="358.9257,-178.5109 350.222,-184.5522 360.7934,-185.2571 358.9257,-178.5109"/>
<text text-anchor="middle" x="478.5622" y="-144.8" font-family="Times,serif" font-size="14.00" fill="#000000">out/no_more_images</text>
</g>
</g>
</svg>
