<svg xmlns="http://www.w3.org/2000/svg" viewBox="0 0 90.28 81.05"><path d="M40.75,61.25V75.79H36.14V39.53H47.89a15.53,15.53,0,0,1,4.62.78,11.64,11.64,0,0,1,3.83,2.09,9.91,9.91,0,0,1,2.6,3.38,11.65,11.65,0,0,1,0,9.26,10,10,0,0,1-2.6,3.37,11.64,11.64,0,0,1-3.83,2.09,15.21,15.21,0,0,1-4.62.75Zm0-3.79h7.14A8.63,8.63,0,0,0,50.83,57a6.84,6.84,0,0,0,2.34-1.38,6.13,6.13,0,0,0,1.56-2.18,7.28,7.28,0,0,0,.56-2.92,7.6,7.6,0,0,0-.56-3,6.58,6.58,0,0,0-1.54-2.24,6.88,6.88,0,0,0-2.35-1.42,9,9,0,0,0-3-.52H40.75Z" style="fill:#fff"/><path d="M65.85,75.79V39.53h8.39A18.33,18.33,0,0,1,81,40.82a14.1,14.1,0,0,1,5,3.43,14.86,14.86,0,0,1,3.14,5.28,21,21,0,0,1,1.11,6.81V59a21,21,0,0,1-1.11,6.81A14.86,14.86,0,0,1,86,71.1a14.1,14.1,0,0,1-5,3.43,17.56,17.56,0,0,1-6.76,1.26Zm4.68-32.47V72h3.71a12,12,0,0,0,5.08-1,9.9,9.9,0,0,0,3.55-2.75A11.74,11.74,0,0,0,85,64.14,19,19,0,0,0,85.67,59V56.29A18.82,18.82,0,0,0,85,51.18a11.9,11.9,0,0,0-2.09-4.09,9.71,9.71,0,0,0-3.54-2.72,12.32,12.32,0,0,0-5.08-1Z" style="fill:#fff"/><polyline points="90.07 79.05 3.46 79.05 46.77 4.05 46.77 4.05" style="fill:none;stroke:#fff;stroke-miterlimit:10;stroke-width:4px"/><polygon points="63.27 33.55 46.77 4.05 43.32 10.02 58.49 36.3 63.27 33.55" style="fill:#fff;stroke:#fff;stroke-miterlimit:10;stroke-width:4px"/></svg>